<?xml version="1.0" standalone="no"?>
<!DOCTYPE svg PUBLIC "-//W3C//DTD SVG 20010904//EN"
 "http://www.w3.org/TR/2001/REC-SVG-20010904/DTD/svg10.dtd">
<svg version="1.0" xmlns="http://www.w3.org/2000/svg"
 width="867.000000pt" height="688.000000pt" viewBox="0 0 867.000000 688.000000"
 preserveAspectRatio="xMidYMid meet">

<g transform="translate(0.000000,688.000000) scale(0.100000,-0.100000)"
fill="#000000" stroke="none">
<path d="M734 5966 l-34 -34 0 -566 c0 -510 2 -569 16 -592 38 -58 -108 -54
2143 -54 1316 0 2079 4 2095 10 14 5 35 24 46 42 19 32 20 51 20 597 l0 563
-34 34 -34 34 -2092 0 -2092 0 -34 -34z m1154 -247 c83 -29 82 -147 -3 -179
-16 -6 -161 -10 -366 -10 -361 0 -394 4 -418 48 -14 26 -14 78 0 103 23 45 54
48 415 49 218 0 352 -4 372 -11z m1347 -3 c39 -17 55 -42 55 -88 0 -45 -23
-75 -68 -88 -51 -14 -689 -13 -730 1 -54 19 -79 88 -51 140 23 45 53 48 417
49 274 0 349 -3 377 -14z m1340 0 c39 -17 55 -42 55 -86 0 -44 -16 -69 -56
-86 -28 -12 -100 -14 -374 -14 -205 1 -351 5 -369 11 -77 27 -81 142 -6 175
45 20 702 20 750 0z m-2675 -541 c16 -8 34 -24 40 -34 23 -44 4 -111 -37 -130
-16 -7 -143 -11 -392 -11 l-367 0 -27 28 c-40 41 -38 101 4 136 l31 26 359 0
c302 0 365 -2 389 -15z m1361 -14 c40 -41 41 -96 1 -134 l-28 -27 -371 0 -371
0 -31 26 c-50 42 -41 117 17 148 22 13 89 15 390 16 l364 0 29 -29z m1345 -4
c34 -39 33 -96 -2 -131 l-27 -26 -374 0 -375 0 -29 29 c-47 47 -34 127 25 151
11 5 187 8 389 7 l369 -2 24 -28z"/>
<path d="M5387 4812 c-46 -31 -55 -53 -87 -204 -17 -78 -36 -155 -41 -170 -17
-42 -48 -64 -154 -109 -136 -56 -146 -54 -310 54 -71 47 -142 89 -158 92 -56
14 -97 -3 -170 -73 -79 -77 -97 -106 -97 -160 0 -39 7 -53 123 -236 31 -48 59
-102 62 -120 5 -23 -5 -59 -36 -136 -62 -156 -61 -155 -275 -200 -159 -33
-189 -46 -216 -101 -26 -49 -25 -211 1 -259 29 -54 57 -68 211 -100 163 -35
192 -44 215 -70 15 -17 78 -156 96 -215 15 -47 3 -76 -88 -217 -78 -120 -87
-139 -91 -190 l-4 -58 73 -76 c130 -133 157 -135 333 -20 193 126 182 123 318
68 161 -66 153 -54 202 -277 48 -214 68 -235 232 -234 162 1 188 26 228 225
32 158 44 190 77 221 40 36 226 106 263 99 18 -3 94 -47 171 -96 121 -79 144
-90 182 -90 24 0 56 6 71 14 44 23 148 138 161 178 17 53 5 86 -81 218 -96
148 -98 152 -98 196 0 47 65 209 98 246 32 34 51 41 212 73 156 32 180 42 209
88 18 29 21 50 21 143 0 90 -3 114 -20 141 -27 45 -59 59 -227 94 -189 40
-196 45 -251 181 -23 57 -42 119 -42 139 0 28 19 65 87 170 100 156 111 183
95 236 -15 49 -126 167 -177 189 -58 24 -96 11 -223 -74 -63 -43 -123 -82
-133 -88 -10 -6 -17 -13 -15 -15 3 -2 -19 -3 -47 -2 -30 0 -74 11 -106 26 -31
14 -75 33 -99 43 -70 29 -95 76 -122 236 -13 75 -34 141 -42 133 -3 -3 -3 5
-1 17 3 16 -5 32 -27 53 -31 30 -33 30 -153 33 -106 2 -126 0 -150 -16z m330
-148 c-3 -3 -12 -4 -19 -1 -8 3 -5 6 6 6 11 1 17 -2 13 -5z m-36 -838 c200
-61 352 -248 374 -456 20 -195 -77 -390 -249 -502 -191 -124 -459 -100 -633
56 -220 198 -233 551 -27 760 112 114 252 170 404 161 47 -3 106 -11 131 -19z"/>
<path d="M758 4514 c-59 -31 -58 -21 -58 -635 l0 -561 34 -34 34 -34 1525 0
1524 0 5 120 c3 72 10 125 17 134 10 12 7 18 -18 30 -57 30 -68 94 -25 145
l26 31 123 0 c91 0 153 6 245 25 68 14 124 26 125 28 2 1 12 24 24 51 l21 49
-63 98 -62 98 -203 1 -204 0 -29 29 c-40 41 -40 91 0 132 l29 29 176 0 176 0
0 30 c0 54 40 138 92 195 l50 55 -1769 0 c-1544 -1 -1771 -3 -1795 -16z m1973
-161 c13 -16 12 -17 -3 -4 -17 13 -22 21 -14 21 2 0 10 -8 17 -17z m535 -136
c34 -40 32 -90 -5 -128 l-29 -29 -349 -1 c-437 -2 -410 -4 -436 40 -24 41 -22
85 7 118 23 27 29 28 138 33 62 3 234 3 381 0 l269 -5 24 -28z m-1345 4 c37
-38 39 -88 5 -128 l-24 -28 -377 -3 -376 -3 -29 30 c-40 40 -41 93 -3 133 l27
28 374 0 374 0 29 -29z m343 -197 c3 -8 2 -12 -4 -9 -6 3 -10 10 -10 16 0 14
7 11 14 -7z m176 -59 c7 -9 8 -15 2 -15 -5 0 -12 7 -16 15 -3 8 -4 15 -2 15 2
0 9 -7 16 -15z m-516 -281 c28 -29 35 -79 16 -115 -25 -46 -47 -49 -415 -49
-367 0 -400 4 -424 48 -19 36 -13 87 14 116 l24 26 379 0 379 0 27 -26z m1327
13 c37 -28 50 -88 28 -129 -24 -44 -57 -48 -424 -48 -368 0 -390 3 -415 49
-19 36 -12 86 16 115 l27 26 376 0 c280 -1 380 -4 392 -13z"/>
<path d="M734 3016 l-34 -34 0 -561 c0 -616 -1 -604 59 -636 26 -13 251 -14
1902 -12 l1873 2 37 85 c21 47 38 91 38 98 1 7 -12 12 -31 12 -49 0 -98 16
-151 50 l-48 30 -275 0 -276 0 -29 29 c-40 41 -40 91 0 132 l29 29 191 0 c105
0 191 3 191 6 0 3 -5 14 -10 24 -35 65 -30 196 10 272 11 21 20 41 20 43 0 3
-90 5 -199 5 -142 -1 -206 3 -220 12 -37 23 -53 88 -31 129 24 44 54 49 320
49 137 0 250 3 250 7 0 4 -7 26 -16 49 -12 32 -22 43 -42 47 -217 39 -301 69
-371 132 l-38 35 -1558 0 -1557 0 -34 -34z m1166 -251 c57 -30 69 -103 24
-149 l-27 -26 -379 0 -379 0 -24 26 c-36 39 -34 96 4 134 l29 29 361 1 c306 0
366 -2 391 -15z m1340 0 c56 -29 68 -101 25 -148 l-26 -27 -378 0 -378 0 -27
26 c-44 45 -33 119 22 148 41 23 719 23 762 1z m-1314 -558 c34 -40 32 -90 -5
-128 l-29 -29 -370 0 -370 0 -31 26 c-26 21 -31 33 -31 69 0 36 5 48 31 69
l31 27 375 -3 375 -3 24 -28z m1335 4 c42 -42 41 -99 -2 -135 l-31 -26 -370 0
-370 0 -29 29 c-21 22 -29 39 -29 66 0 27 8 44 29 66 l29 29 372 0 372 0 29
-29z"/>
<path d="M4887 2078 c-14 -13 -43 -66 -65 -118 -22 -52 -110 -255 -195 -450
-85 -195 -228 -521 -316 -724 -98 -225 -161 -381 -161 -401 0 -73 98 -113 153
-62 16 14 97 188 222 477 109 250 269 619 356 819 96 220 159 377 159 396 0
74 -98 113 -153 63z"/>
<path d="M759 1565 c-61 -33 -59 -10 -59 -631 l0 -566 34 -34 34 -34 1433 0
c788 0 1430 2 1428 4 -2 2 -106 63 -231 135 l-226 131 -332 0 c-352 0 -375 3
-400 49 -13 26 -13 77 1 103 22 40 66 48 273 48 l195 0 -22 48 c-17 37 -22 66
-22 137 0 50 3 104 7 122 l7 32 -200 3 -201 3 -24 28 c-32 37 -33 96 -1 124
42 39 64 44 175 41 132 -3 238 -3 362 0 92 3 96 4 155 42 34 22 64 40 67 40 4
0 71 37 150 83 78 46 152 88 162 94 15 8 -362 11 -1360 12 -1175 0 -1383 -2
-1405 -14z m2099 -12 c-10 -2 -26 -2 -35 0 -10 3 -2 5 17 5 19 0 27 -2 18 -5z
m356 -138 c-4 -8 -11 -15 -16 -15 -6 0 -5 6 2 15 7 8 14 15 16 15 2 0 1 -7 -2
-15z m-430 -83 c3 -5 -1 -9 -9 -9 -8 0 -12 4 -9 9 3 4 7 8 9 8 2 0 6 -4 9 -8z
m-858 -65 c25 -30 31 -75 14 -108 -26 -47 -46 -49 -430 -49 l-362 0 -29 29
c-55 56 -26 154 49 163 15 2 186 1 380 -2 l354 -5 24 -28z m-38 -508 c54 -19
79 -88 51 -141 -24 -44 -57 -48 -419 -48 -362 0 -395 4 -419 48 -16 30 -13 84
4 110 9 12 30 26 48 31 46 13 696 14 735 0z"/>
<path d="M3477 1320 c-197 -114 -369 -218 -382 -230 -53 -50 -60 -171 -14
-231 33 -42 751 -459 792 -459 64 0 108 65 86 128 -8 22 -26 41 -58 59 -25 15
-86 50 -136 79 -49 29 -184 107 -300 174 -115 67 -211 123 -213 125 -3 3 52
35 423 248 244 141 273 160 286 194 12 33 -4 87 -34 108 -49 34 -76 23 -450
-195z"/>
<path d="M7117 1502 c-55 -57 -31 -124 63 -175 80 -43 605 -349 613 -357 10
-9 -8 -19 -391 -240 -155 -89 -289 -172 -297 -183 -25 -36 -19 -85 14 -118 52
-52 55 -51 376 135 94 55 184 107 200 116 301 171 305 175 305 285 0 102 -13
116 -200 224 -74 43 -237 137 -362 209 -252 146 -274 153 -321 104z"/>
<path d="M5215 711 c-57 -29 -95 -91 -95 -156 1 -154 183 -237 312 -142 84 62
76 224 -14 288 -46 33 -147 38 -203 10z"/>
<path d="M5895 719 c-33 -19 -76 -62 -91 -91 -20 -39 -17 -112 6 -158 58 -115
254 -128 326 -22 50 74 32 189 -39 246 -34 27 -47 31 -110 34 -42 1 -80 -2
-92 -9z"/>
<path d="M6565 716 c-131 -58 -140 -241 -17 -314 90 -52 206 -31 259 46 60 90
23 228 -74 268 -41 18 -129 17 -168 0z"/>
</g>
</svg>
