<svg version="1.1" id="Layer_1" xmlns="http://www.w3.org/2000/svg" xmlns:xlink="http://www.w3.org/1999/xlink" x="0px" y="0px"
	 width="100%" viewBox="0 0 1024 1024" enable-background="new 0 0 1024 1024" xml:space="preserve">
<path fill="#F1DD3F" opacity="1.000000" stroke="none" 
	d="
M516.386841,1024.780029 
	C513.629456,1025.000000 511.258881,1025.000000 508.444153,1025.000000 
	C480.893677,1020.986572 455.154602,1011.668152 428.886566,1004.442139 
	C386.024902,992.651367 343.305756,980.343079 300.528595,968.245667 
	C249.580582,953.837463 198.610031,939.509033 147.685959,925.016357 
	C142.193985,923.453369 141.367630,922.004456 140.799118,916.161987 
	C138.770920,895.319092 137.043869,874.448730 135.145599,853.594788 
	C133.955338,840.519043 132.813049,827.431702 131.710037,814.345337 
	C130.286499,797.456421 128.628387,780.582886 127.139839,763.698486 
	C126.030319,751.113281 124.904663,738.527588 123.785789,725.942932 
	C122.269905,708.892883 120.715042,691.844482 119.177910,674.797119 
	C118.028625,662.051147 116.973396,649.290527 115.806763,636.543945 
	C114.231476,619.332336 112.845718,602.104431 111.171425,584.900208 
	C109.931915,572.163635 109.051704,559.387512 107.825485,546.645935 
	C106.169678,529.440552 104.795364,512.210327 103.183220,495.000641 
	C102.020500,482.588715 100.879120,470.171082 99.857079,457.745026 
	C98.739883,444.162201 97.344780,430.603699 96.192810,417.026550 
	C95.138718,404.602936 94.025467,392.186127 92.883575,379.770691 
	C91.254906,362.062744 89.846916,344.336060 88.125069,326.634583 
	C86.918327,314.228668 86.044029,301.786407 84.871056,289.372498 
	C83.213844,271.833740 81.782516,254.274704 80.132988,236.734360 
	C78.965805,224.323074 77.973381,211.892380 76.866783,199.473434 
	C75.657257,185.899353 74.308418,172.335358 73.163765,158.759079 
	C72.102272,146.168961 70.929832,133.589005 69.847267,121.001091 
	C68.352005,103.614410 66.819710,86.231857 65.153946,68.859566 
	C63.964092,56.450558 63.077667,44.010563 61.892094,31.597578 
	C61.291714,25.311563 60.748688,19.020061 60.148548,12.734092 
	C59.795845,9.039798 58.769894,5.087242 61.693855,1.324568 
	C362.354218,1.000000 662.708435,1.000000 963.531372,1.000000 
	C967.543945,4.477598 966.214355,8.862041 965.842590,12.839425 
	C964.543213,26.738995 963.353516,40.647938 962.073303,54.548389 
	C960.549316,71.096420 959.003296,87.645172 957.517212,104.195442 
	C956.372681,116.942184 955.253845,129.695389 954.149963,142.447800 
	C952.659546,159.666199 951.123291,176.880310 949.498718,194.087433 
	C948.295715,206.828857 947.362732,219.599152 946.157227,232.342926 
	C944.529541,249.549438 943.172119,266.779449 941.514893,283.984436 
	C940.272034,296.888214 939.320007,309.824921 938.118408,322.734467 
	C936.532166,339.777344 935.120483,356.835602 933.527710,373.878113 
	C932.367615,386.289856 931.196045,398.704224 930.194885,411.131500 
	C929.100464,424.715515 927.679749,438.270660 926.540710,451.848236 
	C925.484436,464.438751 924.361084,477.021667 923.194153,489.601715 
	C921.567017,507.141968 920.166504,524.701660 918.476562,542.237793 
	C917.264954,554.809875 916.317688,567.412354 915.160522,579.992554 
	C913.562256,597.368286 912.051941,614.752563 910.502441,632.132019 
	C909.351135,645.045593 908.129211,657.955872 907.093506,670.882202 
	C906.058289,683.800537 904.685730,696.695251 903.583252,709.608154 
	C902.480225,722.527588 901.352173,735.444763 900.150391,748.354797 
	C898.548462,765.562805 897.158752,782.789185 895.514343,799.994446 
	C894.281006,812.898560 893.366089,825.838013 892.129028,838.744324 
	C890.495850,855.783569 889.175964,872.849976 887.521851,889.887878 
	C886.670715,898.655334 885.858459,907.432983 885.184387,916.218262 
	C884.737366,922.043518 883.808594,923.451111 878.254272,925.029236 
	C846.224365,934.129395 814.143677,943.049561 782.102051,952.107971 
	C735.481140,965.288086 688.814941,978.306519 642.186890,991.461121 
	C605.975952,1001.677002 569.759705,1011.875793 533.516968,1021.978943 
	C528.052795,1023.502136 522.397095,1023.970947 516.386841,1024.780029 
z"/>
<path fill="#FFFFFF" opacity="1.000000" stroke="none" 
	d="
M516.468628,1025.000000 
	C529.144470,1020.017883 542.907043,1017.120911 556.349548,1013.145630 
	C578.967468,1006.457031 601.757507,1000.349976 624.476746,994.004395 
	C653.191467,985.984253 681.921570,978.018738 710.619324,969.938660 
	C735.059692,963.057251 759.445618,955.982361 783.888550,949.110229 
	C812.748718,940.996216 841.667969,933.091431 870.497742,924.871948 
	C874.643311,923.690002 880.317139,924.100586 882.521423,920.625488 
	C884.576721,917.385193 883.323425,912.297729 883.803101,908.006226 
	C885.286377,894.733643 885.834595,881.359863 887.045410,868.052612 
	C888.521912,851.825256 890.683411,835.651733 891.803711,819.403625 
	C892.439758,810.179382 893.368164,800.983704 894.072510,791.769592 
	C895.088501,778.477600 896.830444,765.240601 897.812256,751.946838 
	C898.420105,743.717773 899.240356,735.516846 899.957886,727.301941 
	C901.204834,713.025757 902.178162,698.731079 903.868347,684.488892 
	C904.956421,675.320129 905.191467,666.053467 906.029602,656.850830 
	C907.208862,643.903076 908.897034,630.994751 909.782715,618.029602 
	C910.379272,609.298401 911.168152,600.596008 911.985046,591.888428 
	C913.307983,577.786743 914.173279,563.647888 915.861938,549.572754 
	C916.942017,540.570190 917.202698,531.472412 918.026184,522.435181 
	C919.236206,509.156281 920.875671,495.911713 921.837402,482.616760 
	C922.432739,474.386475 923.330872,466.190765 923.958008,457.970734 
	C925.035706,443.843872 926.510132,429.756866 927.776611,415.651703 
	C928.557861,406.951019 929.192017,398.223114 930.002502,389.516418 
	C931.299805,375.579102 932.647278,361.646362 933.910095,347.705963 
	C934.668945,339.329071 935.283020,330.939209 936.005188,322.558868 
	C937.207031,308.612793 938.130432,294.645752 939.851929,280.740845 
	C940.904846,272.235718 941.240417,263.643982 942.014954,255.101715 
	C943.263855,241.326782 944.934937,227.580948 945.796936,213.783401 
	C946.353210,204.879959 947.232666,196.018661 948.020874,187.144363 
	C949.244446,173.367325 950.651672,159.606659 951.893188,145.831131 
	C952.678040,137.123154 953.227051,128.393860 954.017578,119.686455 
	C955.253113,106.077042 956.658081,92.482964 957.886292,78.872917 
	C958.687073,69.999596 959.214111,61.101517 960.020569,52.228783 
	C961.242432,38.784855 962.655945,25.358278 963.861816,11.913012 
	C964.158447,8.606133 963.966980,5.255476 964.000000,1.462474 
	C983.328003,1.000000 1002.656372,1.050486 1021.983704,0.937116 
	C1024.443481,0.922687 1025.496948,1.438028 1025.018066,3.985836 
	C1024.897095,4.629581 1025.000000,5.315397 1025.000000,5.981880 
	C1025.000000,344.055695 1024.991577,682.129517 1025.103882,1020.203308 
	C1025.105225,1024.156372 1024.454956,1025.121094 1020.299133,1025.117676 
	C852.511963,1024.979858 684.724609,1025.000000 516.468628,1025.000000 
z"/>
<path fill="#FFFFFF" opacity="1.000000" stroke="none" 
	d="
M61.531342,1.000000 
	C62.293156,16.524021 64.502937,31.886152 65.788551,47.325375 
	C66.513977,56.037312 67.193909,64.758415 68.002922,73.466431 
	C69.297974,87.405975 70.646423,101.340645 71.909126,115.283089 
	C72.667900,123.661217 73.283363,132.052216 74.004913,140.433838 
	C75.205688,154.382050 76.131386,168.350906 77.851929,182.257889 
	C78.904327,190.764343 79.240181,199.357285 80.014832,207.900772 
	C81.263992,221.677704 82.936768,235.425491 83.797401,249.225082 
	C84.352768,258.129944 85.235237,266.992279 86.021736,275.867920 
	C87.242752,289.647217 88.653168,303.409607 89.894852,317.187164 
	C90.679764,325.896393 91.226944,334.627075 92.017693,343.335693 
	C93.253616,356.947113 94.654404,370.543579 95.890816,384.154938 
	C96.681885,392.863708 97.226868,401.594818 98.017441,410.303619 
	C99.253059,423.915009 100.935837,437.495209 101.787956,451.128723 
	C102.354828,460.198395 103.259262,469.226959 104.034607,478.269958 
	C105.202126,491.886810 106.822884,505.467621 107.818695,519.095337 
	C108.420151,527.326172 109.207542,535.530334 109.964066,543.743958 
	C111.278549,558.015381 112.194443,572.318237 113.874413,586.563171 
	C114.955971,595.734192 115.191742,605.001465 116.030205,614.205261 
	C117.209915,627.154968 118.679031,640.078308 119.867569,653.027283 
	C120.712372,662.231201 121.197464,671.467957 122.023865,680.673828 
	C123.245895,694.286865 124.863907,707.868408 125.853439,721.496765 
	C126.439087,729.562561 127.221779,737.599365 127.962059,745.647217 
	C129.274826,759.918701 130.193130,774.221252 131.866058,788.466614 
	C132.943176,797.638489 133.190216,806.904724 134.029633,816.108521 
	C135.225800,829.223938 136.684219,842.315247 137.914658,855.427734 
	C138.716064,863.968262 139.320709,872.527466 139.997070,881.079590 
	C141.011536,893.906494 142.036423,906.732727 142.986298,919.564453 
	C143.104858,921.166199 143.677124,921.636841 145.264847,922.076172 
	C175.110046,930.333984 204.935928,938.662598 234.737457,947.076965 
	C255.550781,952.953430 276.303986,959.042786 297.115387,964.926147 
	C326.913940,973.350037 356.754303,981.626099 386.551849,990.053589 
	C409.727386,996.608215 432.852722,1003.340393 456.023376,1009.912659 
	C473.205170,1014.786316 490.423920,1019.529846 507.813110,1024.665649 
	C340.546021,1025.000000 173.092010,1024.977783 5.638156,1025.125366 
	C1.348015,1025.129150 0.904114,1023.963562 0.905270,1020.140686 
	C1.007541,682.066895 1.011734,343.993134 0.872628,5.919409 
	C0.870800,1.475822 2.051352,0.844091 6.079238,0.896161 
	C24.404438,1.133058 42.734421,1.000000 61.531342,1.000000 
z"/>
<path fill="#F5E779" opacity="1.000000" stroke="none" 
	d="
M513.704224,187.358688 
	C513.936646,151.904114 513.966614,116.739372 514.001526,81.574638 
	C514.007996,75.016571 514.017151,75.002144 520.604065,75.001984 
	C638.932922,74.999054 757.261780,74.998871 875.590637,75.002495 
	C882.373840,75.002708 882.153259,75.086288 881.428711,81.699806 
	C880.361633,91.439384 879.865784,101.239990 878.979309,111.001221 
	C877.131714,131.344910 874.937683,151.660629 873.374695,172.025345 
	C872.395325,184.785080 871.188232,197.517120 870.052368,210.259903 
	C868.504089,227.630585 866.911560,244.998978 865.400085,262.369415 
	C864.277039,275.276154 863.092834,288.183685 861.976562,301.093628 
	C860.502991,318.135284 858.528870,335.139252 857.361572,352.199951 
	C856.487671,364.972290 855.167847,377.691315 854.008240,390.430725 
	C852.442688,407.631073 850.589294,424.810852 849.375977,442.035797 
	C848.488159,454.639130 847.234863,467.196899 846.040833,479.767120 
	C844.376099,497.292053 842.540039,514.808289 841.331970,532.366394 
	C840.475891,544.807007 839.192444,557.194519 838.051636,569.602539 
	C836.774475,583.494019 835.665344,597.401123 834.409058,611.294312 
	C833.242554,624.195740 832.183838,637.115601 831.000610,650.020691 
	C829.438599,667.055908 827.546387,684.067688 826.368469,701.129028 
	C825.486755,713.900391 824.181824,726.621094 823.013367,739.359985 
	C821.435852,756.559448 819.584900,773.740051 818.389465,790.966125 
	C817.503296,803.736816 816.146545,816.453003 815.038818,829.197021 
	C814.204407,838.796631 813.624939,848.418274 812.846375,858.023193 
	C812.570312,861.428406 811.152710,863.492737 807.318176,864.532227 
	C764.900208,876.032410 722.548401,887.776917 680.175720,899.444580 
	C630.420044,913.145203 580.662292,926.838379 530.902649,940.524963 
	C526.408752,941.760986 521.878723,942.867676 517.396973,944.144958 
	C515.022888,944.821594 513.914368,944.185181 513.997742,941.625854 
	C514.068298,939.461731 514.000000,937.293213 514.000610,935.126648 
	C514.010559,899.461914 514.021790,863.797119 514.052612,827.678223 
	C514.947144,824.339172 517.531799,823.798157 519.906433,823.146362 
	C552.979065,814.067810 586.027893,804.902832 619.095276,795.805237 
	C658.424072,784.984985 697.718384,774.039246 737.065613,763.285156 
	C743.765747,761.453979 744.311768,760.301636 744.844543,753.597046 
	C745.950256,739.681274 747.257690,725.780090 748.468201,711.873230 
	C749.606934,698.790588 750.704224,685.701599 751.844788,672.618103 
	C753.374695,655.067078 754.876953,637.513428 756.461121,619.966797 
	C757.627014,607.053406 758.681335,594.126404 759.803772,581.207031 
	C761.386230,562.992493 762.978760,544.778198 764.520264,526.560791 
	C765.641663,513.307739 766.751038,500.050934 767.906311,486.801239 
	C769.407654,469.581451 770.891968,452.358948 772.459045,435.144226 
	C773.634583,422.230377 774.674805,409.302368 775.811951,396.383881 
	C777.021606,382.641266 778.237610,368.898590 779.434631,355.155609 
	C780.574219,342.071686 781.682861,328.983521 782.823181,315.898956 
	C784.367371,298.180634 785.942932,280.464111 787.468750,262.745270 
	C788.624023,249.330338 789.863159,235.918472 790.843262,222.486755 
	C791.520813,213.200653 792.536804,203.943161 793.225769,194.655075 
	C793.505127,190.888809 792.251099,189.343246 788.677429,189.256073 
	C787.011292,189.215439 785.345520,189.203598 783.679443,189.203552 
	C716.863220,189.201874 650.046997,189.201981 583.230774,189.202911 
	C581.897827,189.202942 580.559143,189.290115 579.232971,189.207138 
	C575.077087,188.947098 572.928955,190.739212 571.887207,194.906067 
	C567.486084,212.511414 562.776550,230.039246 558.200928,247.600967 
	C554.632935,261.295227 551.068298,274.990662 547.466980,288.676422 
	C545.506226,296.127502 546.053894,296.783203 553.664185,296.788116 
	C589.821594,296.811432 625.979065,296.768921 662.136414,296.816833 
	C671.420776,296.829132 674.338562,295.833038 673.207397,308.253113 
	C671.579224,326.130035 670.143433,344.024078 668.565063,361.905762 
	C667.395752,375.153473 666.100647,388.395660 665.207458,401.666840 
	C664.006165,419.514252 662.745422,417.149414 649.059387,417.174042 
	C607.236877,417.249298 565.414124,417.227203 523.591614,417.156342 
	C520.522217,417.151154 517.198364,417.984283 514.284973,415.182312 
	C514.049866,343.045898 514.025940,271.316345 513.996521,199.586761 
	C513.995239,196.591599 513.942444,193.596481 513.856567,190.112000 
	C513.311584,189.022980 513.247375,188.359772 513.704224,187.358688 
z"/>
<path fill="#70716F" opacity="1.000000" stroke="none" 
	d="
M514.009705,414.858215 
	C524.735046,414.850189 535.395203,414.981567 546.055481,414.989319 
	C582.718506,415.016083 619.381714,414.948120 656.044312,415.071381 
	C660.142822,415.085144 661.964722,414.520233 662.350708,409.630737 
	C665.168335,373.944061 668.328918,338.283478 671.607361,302.635468 
	C672.011719,298.238647 669.524597,299.011108 667.124817,299.010254 
	C628.461975,298.996643 589.799194,299.000488 551.136353,299.000305 
	C549.803162,299.000305 548.458679,298.887726 547.138977,299.020844 
	C543.528992,299.385040 542.513123,298.317902 543.558350,294.519287 
	C547.531677,280.078156 551.181885,265.548035 554.946533,251.049530 
	C560.049866,231.395813 565.245300,211.765060 570.164246,192.065277 
	C571.140991,188.153275 572.718567,186.882385 576.879639,186.891205 
	C648.038879,187.042130 719.198486,186.998245 790.358032,187.001968 
	C796.375610,187.002274 796.257141,187.007538 795.712646,193.178467 
	C792.741638,226.846680 789.849609,260.521851 786.899719,294.191956 
	C783.702759,330.681915 780.440552,367.166199 777.266174,403.658142 
	C774.769775,432.356384 772.398804,461.065491 769.907959,489.764221 
	C767.071716,522.441467 764.136536,555.110168 761.295837,587.787048 
	C758.815613,616.317566 756.416870,644.855164 753.963501,673.388062 
	C751.538513,701.591187 749.028992,729.787292 746.722229,758.000061 
	C746.399902,761.941711 744.837830,763.589539 741.002502,764.640625 
	C666.694214,785.004089 592.429138,805.525146 518.155701,826.015564 
	C517.032776,826.325378 515.916321,826.658264 514.434631,827.102173 
	C514.072449,827.223999 513.942139,827.057983 513.930603,826.953125 
	C511.950104,825.341614 511.836823,823.157288 511.829468,820.969482 
	C511.710907,785.645020 511.729919,750.320496 511.822083,714.996033 
	C511.827301,712.994080 511.868958,710.965149 513.653687,708.940979 
	C513.902710,708.505127 513.935120,708.188843 514.000488,708.043945 
	C515.583801,706.006592 517.588013,705.034790 519.913818,704.376038 
	C538.475769,699.118774 557.145386,694.257751 575.760315,689.197327 
	C593.733704,684.311340 611.708618,679.424805 629.731323,674.722229 
	C633.560486,673.723083 635.583374,671.830750 636.085632,667.630554 
	C637.564575,655.261902 638.538757,642.847900 639.799194,630.460999 
	C641.782471,610.970947 643.475891,591.452820 645.486206,571.963684 
	C646.661560,560.568909 647.673584,549.151733 648.709778,537.740417 
	C649.223145,532.086243 648.258728,531.216614 642.245911,531.210266 
	C602.627380,531.168823 563.008789,531.217468 523.390381,531.149170 
	C520.478760,531.144165 517.351013,531.923645 514.392944,529.510376 
	C514.051514,529.228271 513.942261,529.054199 513.930725,528.952087 
	C511.953827,527.347107 511.837189,525.168945 511.830963,522.983948 
	C511.738068,490.389465 511.663757,457.794830 511.887878,425.200806 
	C511.909393,422.075897 512.031006,418.891754 513.599426,415.532806 
	C513.919250,415.150024 513.944580,414.940948 514.009705,414.858215 
z"/>
<path fill="#323330" opacity="1.000000" stroke="none" 
	d="
M513.444702,187.040070 
	C513.864502,187.707169 513.824036,188.345505 513.791504,189.303253 
	C508.583374,209.039215 503.325745,228.444717 498.164337,247.875748 
	C494.022552,263.468079 489.908630,279.069153 485.992218,294.718842 
	C485.165283,298.023285 483.851990,299.109375 480.321350,299.096008 
	C440.662109,298.945465 401.002045,299.000763 361.342224,299.000916 
	C354.223907,299.000946 354.230347,299.000702 354.827057,305.921722 
	C357.830292,340.756531 360.930359,375.583710 363.699615,410.437134 
	C364.034180,414.648010 365.616730,415.078583 369.116730,415.063232 
	C395.778290,414.946167 422.441376,415.101135 449.101929,414.898071 
	C453.511017,414.864471 454.287964,415.719513 453.137756,420.045624 
	C443.864410,454.924225 434.785339,489.854889 425.796051,524.808044 
	C424.925171,528.194214 423.462494,529.145142 420.026184,529.091675 
	C406.031982,528.873596 392.031158,529.102234 378.035706,528.930237 
	C374.530548,528.887207 373.561890,529.785400 373.889740,533.403870 
	C376.519073,562.421021 378.932465,591.457642 381.430573,620.486694 
	C382.900879,637.572388 384.335022,654.661621 385.943176,671.734497 
	C386.351715,676.071655 384.853729,679.963867 383.822937,683.946167 
	C375.570801,715.827332 367.151978,747.665466 358.924225,779.552917 
	C357.958130,783.296997 356.958618,784.595276 352.614838,783.337341 
	C330.091522,776.814758 307.475708,770.600403 284.805298,764.607178 
	C280.805450,763.549805 279.631805,761.686523 279.324127,757.886475 
	C277.321991,733.159668 275.137939,708.447449 272.992310,683.732361 
	C270.155640,651.056702 267.293243,618.383240 264.453644,585.707825 
	C261.628479,553.198792 258.823151,520.688049 255.999496,488.178894 
	C252.815628,451.522369 249.618210,414.866974 246.431870,378.210663 
	C243.620407,345.867004 240.816620,313.522675 238.008438,281.178741 
	C235.473877,251.986359 232.974411,222.790848 230.374756,193.604248 
	C229.785477,186.988358 229.624390,186.999390 236.032501,186.999619 
	C328.349823,187.002960 420.667175,187.007248 513.444702,187.040070 
z"/>
<path fill="#F5E779" opacity="1.000000" stroke="none" 
	d="
M514.032104,529.682312 
	C526.539429,529.152161 539.027222,529.022705 551.515198,529.010437 
	C583.331848,528.979248 615.148743,529.063293 646.964722,528.921509 
	C650.980286,528.903625 651.817566,529.828613 651.404114,533.962036 
	C647.726501,570.725342 644.354858,607.519226 640.863403,644.301270 
	C640.061340,652.750366 638.823364,661.173157 638.415100,669.638428 
	C638.204041,674.013733 636.378174,675.372131 632.457336,676.409668 
	C599.486267,685.134277 566.579346,694.101746 533.649658,702.983032 
	C527.387207,704.671997 521.109192,706.303101 514.452026,707.929932 
	C514.048096,648.644836 514.030396,589.390564 514.032104,529.682312 
z"/>
<path fill="#333430" opacity="1.000000" stroke="none" 
	d="
M513.511719,708.547058 
	C513.927856,747.646729 513.953064,786.788269 513.948669,826.389099 
	C510.631012,827.417786 507.723694,825.916077 504.711212,825.089600 
	C475.220917,816.999756 445.758514,808.807434 416.241150,800.817871 
	C412.439728,799.789001 411.253723,798.564209 412.364746,794.395874 
	C421.139526,761.474670 429.654968,728.484375 438.248901,695.514954 
	C439.847046,689.383972 439.850128,689.362061 446.191620,691.076416 
	C467.368896,696.801270 488.544922,702.530945 509.707550,708.309570 
	C510.867554,708.626282 511.953491,708.839783 513.511719,708.547058 
z"/>
<path fill="#343430" opacity="1.000000" stroke="none" 
	d="
M513.548279,415.096802 
	C513.939575,452.743805 513.959961,490.337616 513.949768,528.390686 
	C503.468903,528.849976 493.018646,528.849976 482.079956,528.849976 
	C485.721405,514.955383 489.287506,501.360199 492.847137,487.763336 
	C498.854218,464.817841 504.849426,441.869232 510.880096,418.929932 
	C511.268188,417.453796 510.843536,415.405670 513.548279,415.096802 
z"/>
</svg>